<svg xmlns="http://www.w3.org/2000/svg" xmlns:xlink="http://www.w3.org/1999/xlink" viewBox="0 0 384.36 385.23"><defs><linearGradient id="linear-gradient" x1="2095.32" y1="2157.97" x2="1753.16" y2="1733.04" gradientUnits="userSpaceOnUse"><stop offset="0" stop-color="#dae3fe"/><stop offset="1" stop-color="#e9effd"/></linearGradient><linearGradient id="linear-gradient-2" x1="227.53" y1="350.16" x2="223.32" y2="266.83" gradientUnits="userSpaceOnUse"><stop offset="0" stop-color="#09005d"/><stop offset="1" stop-color="#1a0f91"/></linearGradient><linearGradient id="linear-gradient-3" x1="1714.05" y1="1835.46" x2="2047.18" y2="1835.46" xlink:href="#linear-gradient-2"/><linearGradient id="linear-gradient-4" x1="1893.78" y1="1641.95" x2="1868.35" y2="1970.16" gradientUnits="userSpaceOnUse"><stop offset="0" stop-color="#53d8ff"/><stop offset="1" stop-color="#3840f7"/></linearGradient><linearGradient id="linear-gradient-5" x1="1890.61" y1="1978.67" x2="1851.89" y2="2063.69" xlink:href="#linear-gradient-2"/><linearGradient id="linear-gradient-6" x1="1723.47" y1="1761.56" x2="2035.89" y2="1761.56" gradientUnits="userSpaceOnUse"><stop offset="0" stop-color="#4f52ff"/><stop offset="1" stop-color="#4042e2"/></linearGradient><linearGradient id="linear-gradient-7" x1="1795.14" y1="1848.66" x2="1791.3" y2="2025.56" xlink:href="#linear-gradient-2"/><linearGradient id="linear-gradient-8" x1="1796.15" y1="1854.83" x2="1793.38" y2="1971.77" gradientTransform="translate(3585.66 3990.23) rotate(180)" xlink:href="#linear-gradient-2"/><linearGradient id="linear-gradient-9" x1="1770.95" y1="2147.87" x2="1798.3" y2="1811.04" xlink:href="#linear-gradient-6"/><linearGradient id="linear-gradient-10" x1="1897.04" y1="1660.1" x2="1897.04" y2="1730.79" gradientUnits="userSpaceOnUse"><stop offset="0" stop-color="#febbba"/><stop offset="1" stop-color="#ff928e"/></linearGradient><linearGradient id="linear-gradient-11" x1="1734.2" y1="1660.1" x2="1734.2" y2="1730.79" xlink:href="#linear-gradient-10"/><linearGradient id="linear-gradient-12" x1="1776.6" y1="1624.07" x2="1681.04" y2="1799.86" xlink:href="#linear-gradient-10"/><linearGradient id="linear-gradient-13" x1="1752.5" y1="1757.03" x2="1771.32" y2="1803.74" gradientUnits="userSpaceOnUse"><stop offset="0" stop-color="#ff928e"/><stop offset="1" stop-color="#fe7062"/></linearGradient><linearGradient id="linear-gradient-14" x1="1849.98" y1="1663.97" x2="1754.41" y2="1839.75" xlink:href="#linear-gradient-10"/><linearGradient id="linear-gradient-15" x1="1800.1" y1="1889.71" x2="1754.75" y2="1837.39" xlink:href="#linear-gradient-13"/><linearGradient id="linear-gradient-16" x1="1782.8" y1="1627.44" x2="1687.23" y2="1803.23" xlink:href="#linear-gradient-10"/><linearGradient id="linear-gradient-17" x1="1753.34" y1="1681.85" x2="1877.56" y2="1795.8" gradientUnits="userSpaceOnUse"><stop offset="0" stop-color="#e1473d"/><stop offset="1" stop-color="#e9605a"/></linearGradient><linearGradient id="linear-gradient-18" x1="18190.96" y1="1980.82" x2="18143.54" y2="2007.89" gradientTransform="matrix(-1, 0, 0, 1, 19947.57, 0)" xlink:href="#linear-gradient-10"/><linearGradient id="linear-gradient-19" x1="-7909.93" y1="-4059.64" x2="-7913.57" y2="-4003.82" gradientTransform="translate(10652.29 2161.15) rotate(-26.18)" xlink:href="#linear-gradient-6"/><linearGradient id="linear-gradient-20" x1="18186.37" y1="1987.57" x2="18348.62" y2="1886" gradientTransform="matrix(-1, 0, 0, 1, 19947.57, 0)" xlink:href="#linear-gradient-10"/><linearGradient id="linear-gradient-21" x1="-6308.12" y1="-6385.08" x2="-6311.76" y2="-6329.26" gradientTransform="matrix(0.79, -0.61, 0.61, 0.79, 10669.88, 3191.1)" xlink:href="#linear-gradient-6"/><linearGradient id="linear-gradient-22" x1="10314.84" y1="1946.84" x2="10275.84" y2="1989.58" gradientTransform="matrix(-1, 0, 0, 1, 12115.87, 0)" xlink:href="#linear-gradient-17"/><linearGradient id="linear-gradient-23" x1="-11570.62" y1="-222.96" x2="-11558.96" y2="-193.71" gradientTransform="translate(12812.04 -1699.17) rotate(-19.17)" xlink:href="#linear-gradient-2"/><linearGradient id="linear-gradient-24" x1="1866.21" y1="1886.91" x2="1855.98" y2="1906.45" xlink:href="#linear-gradient-13"/><linearGradient id="linear-gradient-25" x1="-9711.44" y1="1965.22" x2="-9664.2" y2="1965.22" gradientTransform="translate(11551.11)" xlink:href="#linear-gradient-10"/><linearGradient id="linear-gradient-26" x1="-11499.26" y1="1015.78" x2="-11496.95" y2="998.88" gradientTransform="translate(13216.98 105.01) rotate(-4.11)" xlink:href="#linear-gradient-10"/><linearGradient id="linear-gradient-27" x1="-10135.38" y1="-4110.34" x2="-10113.64" y2="-4149.03" gradientTransform="translate(10798 -4320.77) rotate(-56.92)" xlink:href="#linear-gradient-10"/><linearGradient id="linear-gradient-28" x1="-10130.71" y1="-4144.03" x2="-10119.84" y2="-4116.76" gradientTransform="translate(10798 -4320.77) rotate(-56.92)" xlink:href="#linear-gradient-2"/><linearGradient id="linear-gradient-29" x1="-10130.75" y1="-4107.74" x2="-10109.01" y2="-4146.43" gradientTransform="translate(10798 -4320.77) rotate(-56.92)" xlink:href="#linear-gradient-10"/><linearGradient id="linear-gradient-30" x1="-9759.89" y1="1539.42" x2="-9784.61" y2="1546.19" gradientTransform="translate(11509.64 -55.03) rotate(-2.83)" xlink:href="#linear-gradient-2"/><linearGradient id="linear-gradient-31" x1="1773.37" y1="1960.7" x2="1995.63" y2="1942" xlink:href="#linear-gradient-2"/><linearGradient id="linear-gradient-32" x1="1810.72" y1="1907.59" x2="1784.62" y2="1971.84" xlink:href="#linear-gradient-6"/><linearGradient id="linear-gradient-33" x1="1917.71" y1="1914.27" x2="2001.63" y2="1914.27" xlink:href="#linear-gradient-6"/><linearGradient id="linear-gradient-34" x1="1865.69" y1="1968.78" x2="1954.69" y2="1968.78" xlink:href="#linear-gradient-2"/><linearGradient id="linear-gradient-35" x1="1903.56" y1="2033.01" x2="1913.16" y2="1890.98" xlink:href="#linear-gradient-6"/><linearGradient id="linear-gradient-36" x1="1913.3" y1="1660.1" x2="1913.3" y2="1730.79" xlink:href="#linear-gradient-10"/></defs><g id="Illustration"><path d="M2001.19,1990.39a138.64,138.64,0,0,1-21.17,17.83c-69.06,49.55-150.78,35.11-168.15,31.58-25.65-5.21-75.22-15.28-111.06-57.43-54.23-63.76-45.78-164.23-3.72-230.55,7.69-12.13,48.33-79.45,130.93-90.25,50-6.54,108.26,6.64,150.46,42C2067.05,1777.78,2060.75,1927.69,2001.19,1990.39Z" transform="translate(-1662.82 -1659.96)" fill="url(#linear-gradient)"/><polygon points="192.36 255.55 185.37 318.25 266.47 318.25 255.91 255.55 192.36 255.55" fill="url(#linear-gradient-2)"/><path d="M1714.05,1756.56v147.76a22.41,22.41,0,0,0,21.84,22.4c54,1.39,242.71,4.77,294.08,4a16.49,16.49,0,0,0,16.24-16c1-34.33,2.6-116.87-3.35-155.19a17,17,0,0,0-16.23-14.36c-45.22-1.45-245.3-6-296.65-4.89A16.29,16.29,0,0,0,1714.05,1756.56Z" transform="translate(-1662.82 -1659.96)" fill="url(#linear-gradient-3)"/><path d="M1723.32,1755.84v140.38a13,13,0,0,0,12.79,13l286.47,3.54a12.63,12.63,0,0,0,12.83-12.59l.48-139.12a9.24,9.24,0,0,0-9-9.27l-293.29-5.93A10,10,0,0,0,1723.32,1755.84Z" transform="translate(-1662.82 -1659.96)" fill="url(#linear-gradient-4)"/><path d="M2037.57,1918.56h0l-314.25-5.35a.47.47,0,0,1-.45-.47.47.47,0,0,1,.47-.46l314.25,5.36a.46.46,0,0,1,0,.92Z" transform="translate(-1662.82 -1659.96)" fill="#7d97f4"/><path d="M1946.76,1991h-118.7c-3.23,0-5.65-2.29-5-4.76l1.52-6c.46-1.81,2.45-3.14,4.82-3.22l114.43-3.57c2.47-.08,4.66,1.24,5.2,3.12l2.75,9.59C1952.47,1988.67,1950,1991,1946.76,1991Z" transform="translate(-1662.82 -1659.96)" fill="url(#linear-gradient-5)"/><path d="M1723.32,1755.84v140.38a13,13,0,0,0,12.79,13l286.47,3.54a12.63,12.63,0,0,0,12.83-12.59l.48-139.12a9.24,9.24,0,0,0-9-9.27l-293.29-5.93A10,10,0,0,0,1723.32,1755.84Z" transform="translate(-1662.82 -1659.96)" fill="#91b3fa"/><path d="M2035.83,1777.3l.06-16.3a9.23,9.23,0,0,0-9-9.26l-293.21-5.92a10,10,0,0,0-10.19,10v21.46Z" transform="translate(-1662.82 -1659.96)" fill="url(#linear-gradient-6)"/><circle cx="1742.19" cy="1764.92" r="3.36" transform="translate(-2038.61 1395.05) rotate(-76.72)" fill="#91b3fa"/><circle cx="1753.82" cy="1764.92" r="3.36" transform="translate(-2029.65 1406.37) rotate(-76.72)" fill="#91b3fa"/><circle cx="1765.1" cy="1764.92" r="3.36" transform="translate(-1922.59 1564.56) rotate(-80.78)" fill="#91b3fa"/><path d="M2018.43,1905.07l-275.36-4a7.66,7.66,0,0,1-7.55-7.66v-27.56a7,7,0,0,1,7.08-7l276,3.13a5.79,5.79,0,0,1,5.72,5.79v31.45A5.82,5.82,0,0,1,2018.43,1905.07Z" transform="translate(-1662.82 -1659.96)" fill="#bdd0fb"/><path d="M1919.3,1855.44l-176-2.53a7.86,7.86,0,0,1-7.75-7.86v-54.5a5.57,5.57,0,0,1,5.57-5.57h177a6.4,6.4,0,0,1,6.4,6.4v58.91A5.15,5.15,0,0,1,1919.3,1855.44Z" transform="translate(-1662.82 -1659.96)" fill="#bdd0fb"/><path d="M2018.51,1855.52h-83.86a5.36,5.36,0,0,1-5.36-5.37v-58.49A6.68,6.68,0,0,1,1936,1785h84.33a4,4,0,0,1,4,4v60.69A5.83,5.83,0,0,1,2018.51,1855.52Z" transform="translate(-1662.82 -1659.96)" fill="#bdd0fb"/><path d="M1681.16,1986.12a4.07,4.07,0,0,0,4.07,4.06h219.66a4.07,4.07,0,0,0,4.06-4.06l1.83-126.23a7.07,7.07,0,0,0-7.45-6.26l-214.68-5.55a10.22,10.22,0,0,0-10.5,10.47Z" transform="translate(-1662.82 -1659.96)" fill="url(#linear-gradient-7)"/><path d="M1685.17,1982.23a3.85,3.85,0,0,0,3.85,3.84h210.57a3.85,3.85,0,0,0,3.84-3.84l1.73-114.59c-.21-6.9-6.25-9.38-9.92-9.23l-205.74-5.52a7.21,7.21,0,0,0-7.39,7.36Z" transform="translate(-1662.82 -1659.96)" fill="#91b3fa"/><rect x="1663.34" y="1989.57" width="258.97" height="11.09" rx="5.55" transform="translate(1922.84 2330.28) rotate(-180)" fill="url(#linear-gradient-8)"/><path d="M1905,1879.19l.18-11.48c-.21-6.9-6.25-9.41-9.92-9.26l-205.74-5.54a7.11,7.11,0,0,0-5.27,2.09,7.36,7.36,0,0,0-2.12,5.33l.48,18.86Z" transform="translate(-1662.82 -1659.96)" fill="url(#linear-gradient-9)"/><path d="M1901.16,1927.79h0a.57.57,0,0,1-.56-.57l.14-9.29a.57.57,0,0,1,.56-.56h0a.57.57,0,0,1,.56.57l-.14,9.3A.57.57,0,0,1,1901.16,1927.79Z" transform="translate(-1662.82 -1659.96)" fill="#fff"/><path d="M1901.49,1905h0a.56.56,0,0,1-.55-.57l.52-35.6a6.66,6.66,0,0,0-1.91-5c-2.34-2.25-6.07-2.14-6.22-2.13l-65.76-1.76a.57.57,0,0,1-.55-.58.54.54,0,0,1,.58-.55l65.72,1.77a10.28,10.28,0,0,1,7,2.43,7.8,7.8,0,0,1,2.26,5.83l-.53,35.6A.56.56,0,0,1,1901.49,1905Z" transform="translate(-1662.82 -1659.96)" fill="#bdd0fb"/><rect x="28.63" y="224.83" width="125.72" height="52.78" rx="5.19" fill="#bdd0fb"/><rect x="160.9" y="224.83" width="75.17" height="52.78" rx="3.72" fill="#bdd0fb"/><rect x="28.63" y="285.29" width="207.45" height="35.83" rx="4.57" fill="#bdd0fb"/><circle cx="1693.07" cy="1865.68" r="2.64" transform="translate(-2082.54 1578.08) rotate(-80.78)" fill="#91b3fa"/><circle cx="39.06" cy="205.98" r="2.64" fill="#91b3fa"/><circle cx="47.28" cy="206.46" r="2.64" fill="#91b3fa"/><ellipse cx="234.22" cy="123.8" rx="36.26" ry="36.73" fill="#fff"/><path d="M1895.76,1803.55a4.47,4.47,0,0,1-3.84-2.21l-13.65-23a4.57,4.57,0,0,1,1.54-6.23,4.45,4.45,0,0,1,6.16,1.55l9.47,16,12.52-24.91a4.45,4.45,0,0,1,6-2,4.59,4.59,0,0,1,2,6.12l-16.2,32.21a4.45,4.45,0,0,1-3.84,2.48Z" transform="translate(-1662.82 -1659.96)" fill="url(#linear-gradient-10)"/><ellipse cx="71.38" cy="264.74" rx="36.26" ry="36.73" fill="#fff"/><path d="M1732.92,1944.49a4.46,4.46,0,0,1-3.84-2.2l-13.65-23a4.58,4.58,0,0,1,1.54-6.24,4.45,4.45,0,0,1,6.16,1.55l9.47,16,12.52-24.91a4.47,4.47,0,0,1,6-2,4.56,4.56,0,0,1,2,6.11l-16.2,32.22a4.49,4.49,0,0,1-3.84,2.48Z" transform="translate(-1662.82 -1659.96)" fill="url(#linear-gradient-11)"/><path d="M1726.6,1749.91a30.48,30.48,0,0,1,23.47-16.63l.69-43.74a.66.66,0,0,0-.67-.68c-28.49.31-53.64,18-65.37,44.32a.72.72,0,0,0,.41,1Z" transform="translate(-1662.82 -1659.96)" fill="url(#linear-gradient-12)"/><path d="M1782.9,1770.86a1.32,1.32,0,0,0-1.28.92c-.49,1.56-1.38,4.56-1.53,4.94a40.42,40.42,0,0,1-2.52,5.37,29.6,29.6,0,0,1-7,8.43c-7.25,5.87-17.67,7-26.36,4.06-.25-.08-.5-.17-.74-.27a1,1,0,0,0-1.19.45l-21.92,40c10.64,5.34,20.66,6.73,33.22,5.93,36.5-2.34,65.17-32,68.35-68.73Z" transform="translate(-1662.82 -1659.96)" fill="url(#linear-gradient-13)"/><path d="M1782.9,1770.86c-2.37,14.59-13.15,26-27.8,26.48a33.22,33.22,0,0,1-12.65-2.28.82.82,0,0,0-1,.35l-22.53,38.76a68.56,68.56,0,0,0,35.22,7.14c36.51-2.34,65.17-32.88,68.35-69.63Z" transform="translate(-1662.82 -1659.96)" fill="url(#linear-gradient-14)"/><path d="M1714.22,1828.05l21.81-39.12a.66.66,0,0,0-.16-.83c-6.71-5.65-12.08-13.24-12.08-23.07,0-2.42-1.07-6-.58-8.23l-41-14.66a79.59,79.59,0,0,0-3.5,23.45c0,26.41,14,49.63,33.29,63A1.56,1.56,0,0,0,1714.22,1828.05Z" transform="translate(-1662.82 -1659.96)" fill="url(#linear-gradient-15)"/><path d="M1712,1826.94l22.6-38.64a1.18,1.18,0,0,0-.24-1.49,31.75,31.75,0,0,1-10.61-24,32.84,32.84,0,0,1,.76-7.06l-41.74-15.61a.62.62,0,0,0-.81.4,80,80,0,0,0-3.31,22.83C1678.69,1790.47,1692.05,1813.76,1712,1826.94Z" transform="translate(-1662.82 -1659.96)" fill="url(#linear-gradient-16)"/><path d="M1758.07,1733.48c12.94,2.17,23,13.06,24.67,26.68a1.5,1.5,0,0,0,1.42,1.31l62.58,2.09.49-.47c-.19-52.35-37.73-97.2-88-103.13Z" transform="translate(-1662.82 -1659.96)" fill="url(#linear-gradient-17)"/><path d="M1763.82,2025c.06,0,30.14-52.7,34.2-57.65a3.15,3.15,0,0,1,2.82-1.13l8.39,1,9.87,21.33-16.44-9.57c1.63,11.25-19.48,28-26.72,34.06a1.67,1.67,0,0,0-.13,2.42l2.89,3a33.25,33.25,0,0,1-16.4,9.32Z" transform="translate(-1662.82 -1659.96)" fill="url(#linear-gradient-18)"/><path d="M1777,2016.8a4.29,4.29,0,0,1,2.47,2.24,1.89,1.89,0,0,1-.71,2.17c-3,2.17-13,9.2-17.68,10.57a.51.51,0,0,1-.65-.61c.23-1.08,1-3.22,3.47-6.36l-.22.45a.64.64,0,0,0,.89.85C1767.69,2024.36,1774,2020.54,1777,2016.8Z" transform="translate(-1662.82 -1659.96)" fill="url(#linear-gradient-19)"/><path d="M1775.54,2037.88s4.56-10.91,4.61-10.94a191.68,191.68,0,0,1,17.21-52.44,3.17,3.17,0,0,1,2.53-1.68l8.42-.72,14,18.9-18-6c3.87,10.69-13.42,31.32-19.27,38.76a1.66,1.66,0,0,0,.36,2.4l3.44,2.38a33.18,33.18,0,0,1-14.17,12.45Z" transform="translate(-1662.82 -1659.96)" fill="url(#linear-gradient-20)"/><path d="M1786.82,2027.23a4.25,4.25,0,0,1,2.87,1.69,1.86,1.86,0,0,1-.25,2.26c-2.53,2.75-10.92,11.66-15.17,13.94a.53.53,0,0,1-.77-.47,16.66,16.66,0,0,1,2.12-6.93l-.13.48a.65.65,0,0,0,1,.65C1779.21,2036.52,1784.61,2031.5,1786.82,2027.23Z" transform="translate(-1662.82 -1659.96)" fill="url(#linear-gradient-21)"/><path d="M1847.75,1968.12s7.62,11.34,8.24,16.51-2.1,6.95-10.08,7.61c-23.74,2-35.44-5.15-35.44-5.15-1.62-10.35-2.78-13-16.34-18.61,0,0,17.15,1.36,20.61,0S1847.75,1968.12,1847.75,1968.12Z" transform="translate(-1662.82 -1659.96)" fill="url(#linear-gradient-22)"/><path d="M1817.36,1904.61s5.31-6.28,11,1.43c1,1.39,5,.24,6.39,3.16a3.69,3.69,0,0,0,4,2.06c4.12-.76,10.85-.82,14.17,5.63,2.54,4.93.58,7.81-2,9.45a4.16,4.16,0,0,0-1.4,5.57c1.08,1.84,1.28,4.32-1.51,7.31-6.25,6.7-18.62-4.25-18.62-4.25l-9.82-23.21Z" transform="translate(-1662.82 -1659.96)" fill="url(#linear-gradient-23)"/><path d="M1827.14,1966.62s-8.88-8.45-13.24-14a11.86,11.86,0,0,1-2-10.69c2-6.72,5.54-13.67,5.87-14.76.49-1.66,10.44-1.59,10.44-1.59s19.58,12.71,27.28,34.24l-8.64,2.69s-5.12-8.58-10.17-14c0,0,8.74,11.54,9,16.27Z" transform="translate(-1662.82 -1659.96)" fill="url(#linear-gradient-24)"/><path d="M1810.23,1970l6.67-7.25,7.7,2.07s9,1.39,14.12,0l5.13-1.39,11.62-3.61,1.82,5.15a3.12,3.12,0,0,1-1.13,3.57,21.25,21.25,0,0,1-2.94,1.82c-1.52.67-35.22.21-35.22.21Z" transform="translate(-1662.82 -1659.96)" fill="url(#linear-gradient-25)"/><path d="M1821.35,1913.57,1828,1926c-.44,2.72-7.28,2.79-8.33,1.17a1.48,1.48,0,0,1-.21-.54l-4-8.31c-.18-.81,2-3.54,2.78-3.93l2.65-1.42C1822,1912.43,1817.69,1912.38,1821.35,1913.57Z" transform="translate(-1662.82 -1659.96)" fill="url(#linear-gradient-26)"/><path d="M1807.82,1910.65s-.76,4.2,2.55,9.54,6.59,5.1,8.26,3.2a11.76,11.76,0,0,0,2.76-10.41C1820.48,1907.65,1809,1905.29,1807.82,1910.65Z" transform="translate(-1662.82 -1659.96)" fill="url(#linear-gradient-27)"/><path d="M1817.39,1913.56s-5.35-7-9.45-.9l.07,2.11s-5.34-.24-4.76-5.17,4.94-8.28,11-6.6,9.57,3.6,10.25,7.79-2.74,3.51-2.74,3.51-1.31-2.89-2.89-3.09-1,2.09-1,2.09Z" transform="translate(-1662.82 -1659.96)" fill="url(#linear-gradient-28)"/><path d="M1818.62,1913.37s-2.77-3.59-.25-4.34,2.43,3.52,2.26,5.11Z" transform="translate(-1662.82 -1659.96)" fill="url(#linear-gradient-29)"/><path d="M1832.3,1972.83h-.07l-30.67,0a1.37,1.37,0,0,1,0-2.74l30.67,0a1.38,1.38,0,0,1,.07,2.75Z" transform="translate(-1662.82 -1659.96)" fill="url(#linear-gradient-30)"/><path d="M1774,1945h25.54a4.86,4.86,0,0,1,4.4,2.79l11.81,25H1784a3,3,0,0,1-2.75-1.87l-9.16-23.17A2,2,0,0,1,1774,1945Z" transform="translate(-1662.82 -1659.96)" fill="url(#linear-gradient-31)"/><path d="M1792,1957.82c.56,1.72.15,3.39-.91,3.73s-2.36-.78-2.92-2.5-.14-3.39.92-3.73S1791.43,1956.1,1792,1957.82Z" transform="translate(-1662.82 -1659.96)" fill="url(#linear-gradient-32)"/><path d="M1996.87,1794.18c.41-1.75-2-2.92-3.56-1.7-15.32,12.43-52.12,49.62-43,114.62,11.51,81.55-8.16,111.31-32.65,129.46,0,0,33.63-8.54,54.79-38.73C2024.45,1923.69,1989.56,1825.31,1996.87,1794.18Z" transform="translate(-1662.82 -1659.96)" fill="url(#linear-gradient-33)"/><path d="M1985.21,1819.65c-1.91,9.08-3.62,18.18-4.94,27.33s-2.43,18.31-3.15,27.5-1.16,18.39-1.19,27.59.31,18.39.73,27.62.79,18.52.11,27.88a82.54,82.54,0,0,1-6.53,27.59c-1,2.21-2,4.4-3.17,6.52s-2.35,4.24-3.62,6.32a99.31,99.31,0,0,1-8.69,12,109.78,109.78,0,0,1-22.87,20,2.3,2.3,0,0,1-2.9-.33,1.63,1.63,0,0,1,.33-2.47h0c2-1.44,4.07-2.9,6-4.42,1-.76,1.93-1.54,2.89-2.31s1.89-1.58,2.79-2.4a99.67,99.67,0,0,0,25-34.25,80.59,80.59,0,0,0,4.33-13,87.54,87.54,0,0,0,2.09-13.47c.74-9.09.41-18.29.12-27.52s-.47-18.5-.22-27.77q.15-7,.61-13.9c.13-2.31.32-4.62.5-6.93s.43-4.62.67-6.93q1.5-13.83,4-27.56c1.71-9.14,3.69-18.24,6.08-27.25a.55.55,0,0,1,.66-.36A.47.47,0,0,1,1985.21,1819.65Z" transform="translate(-1662.82 -1659.96)" fill="#7d97f4"/><path d="M1956.6,2015.53a4.16,4.16,0,0,0,6.81-1.15c6.72-14.84,21.92-58.51-3.19-108.82-21.21-42.48-28.68-67.53-31.28-79.13a2.6,2.6,0,0,0-4.92-.48C1912.81,1851.34,1883.24,1937.69,1956.6,2015.53Z" transform="translate(-1662.82 -1659.96)" fill="#7d97f4"/><path d="M1960.28,2014l.22,0a1.16,1.16,0,0,0,1.14-1.17c0-.73-1.42-72.84-28.24-133.24a1.15,1.15,0,1,0-2.11.93c26.63,60,28,131.62,28,132.34A1.17,1.17,0,0,0,1960.28,2014Z" transform="translate(-1662.82 -1659.96)" fill="#91b3fa"/><path d="M1867.14,1906.45c-.46,22.12-2,98.4-1.26,125.43.08,2.86,2,5.16,4.49,5.25,12.1.47,56.49,1.64,76.29.67,4.12-.2,7.4-4.11,7.49-8.94.41-23.21,1.32-88.49-.84-118.4-.26-3.58-2.66-6.44-5.72-6.8-13.18-1.54-57.76-5.31-74.87-4C1869.64,1899.88,1867.22,1902.84,1867.14,1906.45Z" transform="translate(-1662.82 -1659.96)" fill="url(#linear-gradient-34)"/><path d="M1872.55,1913.24c-.66,17.85-2.71,77.23-2.06,99.19.1,3.2,2.26,5.8,5,6,11.28.77,49.78,2.47,66.33.92,3-.28,5.31-3.1,5.47-6.59.84-18.21,3.25-73.5,2.63-95.21-.1-3.46-2.4-6.29-5.35-6.6-12.2-1.28-53.11-4.33-67.17-3.44C1874.76,1907.67,1872.66,1910.15,1872.55,1913.24Z" transform="translate(-1662.82 -1659.96)" fill="#91b3fa"/><path d="M1897.06,1903.51h0a1.22,1.22,0,0,0,1,1.28c2.86.17,10.91.67,14.51.91a1.21,1.21,0,0,0,1.13-1.51l0-.14a1.17,1.17,0,0,0-1-1,118,118,0,0,0-14.64-.78A1.2,1.2,0,0,0,1897.06,1903.51Z" transform="translate(-1662.82 -1659.96)" fill="#fff" opacity="0.5"/><path d="M1950,1924.3c0-2.4,0-4.76-.09-6.74-.1-3.46-2.4-6.3-5.35-6.61-12.2-1.28-53.11-4.34-67.17-3.44-2.64.17-4.74,2.66-4.85,5.75-.11,2.77-.18,5-.33,9.27Z" transform="translate(-1662.82 -1659.96)" fill="url(#linear-gradient-35)"/><path d="M1910.56,1962.34h-31.81a3.46,3.46,0,0,1-3.41-3.51V1930.9a3.1,3.1,0,0,1,3.14-3.15l32.11.79a3.3,3.3,0,0,1,3.17,3.35V1959A3.25,3.25,0,0,1,1910.56,1962.34Z" transform="translate(-1662.82 -1659.96)" fill="#fff" opacity="0.42"/><path d="M260.77,268.66H276.2a7.06,7.06,0,0,1,7.06,7.06v19.13a7.53,7.53,0,0,1-7.53,7.53h-13a9,9,0,0,1-9-9V275.67a7,7,0,0,1,7-7Z" fill="#fff" opacity="0.42"/><path d="M217.88,306.8H275.7a7.56,7.56,0,0,1,7.56,7.56v8.16a7.24,7.24,0,0,1-7.24,7.24H219.4a8,8,0,0,1-8-8V313.3a6.5,6.5,0,0,1,6.5-6.5Z" fill="#fff" opacity="0.42"/><path d="M1938.62,2015.62l-61.17-.85a3.16,3.16,0,0,1-3.27-3V1997a2.75,2.75,0,0,1,2.89-2.59h64.36a2.65,2.65,0,0,1,2.77,2.47l0,13.79C1944.25,2013.43,1941.72,2015.67,1938.62,2015.62Z" transform="translate(-1662.82 -1659.96)" fill="#fff" opacity="0.42"/><circle cx="216.1" cy="257.06" r="2.16" fill="#fff" opacity="0.74"/><circle cx="223.3" cy="257.27" r="2.16" fill="#fff" opacity="0.74"/><circle cx="230.02" cy="257.67" r="2.16" fill="#fff" opacity="0.74"/><ellipse cx="250.49" cy="298.26" rx="28.06" ry="28.42" fill="#fff"/><path d="M1912.32,1973.53a3.46,3.46,0,0,1-3-1.7l-10.56-17.8a3.55,3.55,0,0,1,1.19-4.83,3.45,3.45,0,0,1,4.77,1.21l7.33,12.35,9.68-19.27a3.45,3.45,0,0,1,4.67-1.54,3.54,3.54,0,0,1,1.52,4.73l-12.53,24.93a3.45,3.45,0,0,1-3,1.92Z" transform="translate(-1662.82 -1659.96)" fill="url(#linear-gradient-36)"/></g></svg>